<?xml version="1.0" encoding="utf-8"?>
<!-- Generator: Adobe Illustrator 18.0.0, SVG Export Plug-In . SVG Version: 6.00 Build 0)  -->
<svg version="1.2" 
	 baseProfile="tiny" 
	 id="Layer_1" 
	 xmlns="http://www.w3.org/2000/svg" 
	 xmlns:xlink="http://www.w3.org/1999/xlink"
	 x="0px" y="0px" viewBox="0 0 864 864" xml:space="preserve">
<path class="path" fill="#000000" stroke="#000000" strokewidth="3" d="M756.6,566.4c29.3-38.5,45.2-85.2,45.2-134.4c0-49.2-15.9-96-45.2-134.4c-6.5-47.9-28.3-92.2-63.1-127
	c-34.8-34.8-79.1-56.6-127-63.1C528,78.1,481.2,62.3,432,62.3c-49.2,0-96,15.9-134.4,45.2c-47.9,6.5-92.2,28.3-127,63.1
	c-34.8,34.8-56.6,79.1-63.1,127C78.1,336,62.3,382.8,62.3,432c0,49.2,15.9,96,45.2,134.4c6.5,47.9,28.3,92.2,63.1,127
	c34.8,34.8,79.1,56.6,127,63.1c38.5,29.3,85.2,45.2,134.4,45.2c49.2,0,96-15.9,134.4-45.2c47.9-6.5,92.2-28.3,127-63.1
	C728.2,658.7,750.1,614.4,756.6,566.4z M557.9,736.4c-7.2,0.8-14.5,1.2-21.8,1.2c-29,0-57.1-6.1-82.8-17.7
	c11.3-7.7,22-16.6,31.9-26.5c14.1-14.1,26.1-29.8,35.8-46.6c18.8,5.1,38.3,7.7,58.3,7.7c14,0,27.7-1.3,41.2-3.8
	C607.5,684.6,585.7,714.1,557.9,736.4z M306.1,736.4c-27.8-22.3-49.6-51.9-62.5-85.7c13.4,2.5,27.2,3.8,41.2,3.8
	c20,0,39.5-2.6,58.3-7.7c9.7,16.8,21.7,32.5,35.8,46.6c9.9,9.9,20.6,18.7,31.9,26.5c-25.7,11.6-53.8,17.7-82.8,17.7
	C320.6,737.6,313.3,737.2,306.1,736.4z M126.4,536.1c0-29,6.1-57.1,17.7-82.8c7.7,11.3,16.6,22,26.5,31.9
	c14.1,14.1,29.8,26.1,46.6,35.8c-5.1,18.8-7.7,38.3-7.7,58.3c0,14,1.3,27.7,3.8,41.2c-33.9-12.9-63.4-34.7-85.7-62.5
	C126.8,550.7,126.4,543.4,126.4,536.1z M127.7,305.9c22.3-27.7,51.8-49.5,85.6-62.3c-2.5,13.4-3.8,27.2-3.8,41.2
	c0,20,2.6,39.5,7.7,58.3c-16.8,9.7-32.5,21.7-46.6,35.8c-9.9,9.9-18.7,20.5-26.4,31.8C129.3,377.5,123.8,341.3,127.7,305.9z
	 M306.1,127.6c7.2-0.8,14.5-1.2,21.8-1.2c29,0,57.1,6.1,82.8,17.7c-11.3,7.7-22,16.6-31.9,26.5c-14.1,14.1-26.1,29.8-35.8,46.6
	c-18.8-5.1-38.3-7.7-58.3-7.7c-14,0-27.7,1.3-41.2,3.8C256.5,179.4,278.3,149.9,306.1,127.6z M557.9,127.6
	c27.8,22.3,49.6,51.9,62.5,85.7c-13.4-2.5-27.2-3.8-41.2-3.8c-20,0-39.5,2.6-58.3,7.7c-9.7-16.8-21.7-32.5-35.8-46.6
	c-9.9-9.9-20.6-18.7-31.9-26.5c25.7-11.6,53.8-17.7,82.8-17.7C543.4,126.4,550.7,126.8,557.9,127.6z M719.9,410.6
	c-7.7-11.3-16.5-21.9-26.4-31.8c-14.1-14.1-29.8-26.1-46.6-35.8c5.1-18.8,7.7-38.3,7.7-58.3c0-14-1.3-27.7-3.8-41.2
	c33.8,12.9,63.3,34.6,85.6,62.3C740.2,341.3,734.7,377.5,719.9,410.6z M550.3,528.9c-0.6-17.4-3.1-34.5-7.5-51
	c14.8-8.5,28.6-18.8,41.4-30.7c16.1,18.5,28.8,39.9,37.4,63.4C599.2,520.9,575.2,527.2,550.3,528.9z M242.6,510.5
	c8.5-23.4,21.3-44.9,37.4-63.4c12.7,11.9,26.6,22.2,41.4,30.7c-4.4,16.5-7,33.6-7.5,51C288.8,527.2,264.8,520.9,242.6,510.5z
	 M313.7,335.1c0.6,17.4,3.1,34.5,7.5,51c-14.8,8.5-28.6,18.8-41.4,30.7c-16.1-18.5-28.8-39.9-37.4-63.4
	C264.8,343.1,288.8,336.8,313.7,335.1z M621.4,353.5c-8.5,23.4-21.3,44.9-37.4,63.4c-12.7-11.9-26.6-22.2-41.4-30.7
	c4.4-16.5,7-33.6,7.5-51C575.2,336.8,599.2,343.1,621.4,353.5z M470.4,470.4c-5.2,5.2-10.7,10.1-16.4,14.7c-7.2,0.8-14.6,1.2-22,1.2
	s-14.8-0.4-22-1.2c-5.7-4.6-11.1-9.5-16.4-14.7c-5.3-5.3-10.1-10.7-14.7-16.4c-0.8-7.2-1.2-14.6-1.2-22c0-7.4,0.4-14.8,1.2-22
	c4.6-5.7,9.5-11.1,14.7-16.4c5.2-5.2,10.7-10.1,16.4-14.7c7.2-0.8,14.6-1.2,22-1.2s14.8,0.4,22,1.2c5.7,4.6,11.1,9.5,16.4,14.7
	c5.2,5.2,10.1,10.7,14.7,16.4c0.8,7.2,1.2,14.6,1.2,22c0,7.4-0.4,14.8-1.2,22C480.5,459.6,475.6,465.1,470.4,470.4z M505.2,401.7
	c-0.5-3.6-1.1-7.2-1.7-10.8c4.7,1.8,9.3,3.7,13.8,5.8c-1.7,4.7-3.6,9.3-5.6,13.9C509.6,407.6,507.4,404.6,505.2,401.7z M497.5,366.5
	c-2.7-8.9-6-17.6-9.8-26c13.5-3.3,27.4-5.2,41.5-5.7c-0.5,14-2.4,27.9-5.7,41.5C515,372.5,506.4,369.2,497.5,366.5z M473.2,360.5
	c-3.6-0.7-7.2-1.2-10.8-1.7c-2.9-2.2-5.9-4.4-9-6.5c4.6-2.1,9.2-3.9,13.9-5.7C469.4,351.2,471.4,355.8,473.2,360.5z M401.7,358.8
	c-3.6,0.5-7.2,1.1-10.8,1.7c1.8-4.7,3.8-9.3,5.9-13.9c4.7,1.7,9.4,3.6,13.9,5.7C407.6,354.4,404.6,356.6,401.7,358.8z M366.5,366.5
	c-8.9,2.7-17.5,6-25.9,9.8c-3.4-13.6-5.3-27.6-5.7-41.5c14.1,0.5,28,2.4,41.5,5.7C372.5,348.9,369.2,357.6,366.5,366.5z
	 M360.5,390.8c-0.7,3.6-1.2,7.2-1.7,10.8c-2.2,2.9-4.4,5.9-6.4,8.9c-2-4.6-3.9-9.2-5.6-13.9C351.3,394.6,355.9,392.6,360.5,390.8z
	 M339.4,432c-4.3,8.2-8.1,16.6-11.4,25.3c-12-7.3-23.2-15.7-33.3-25.3c10.2-9.5,21.4-18,33.3-25.3C331.2,415.4,335,423.8,339.4,432z
	 M352.3,453.3c2.1,3,4.3,6,6.5,9c0.5,3.6,1.1,7.2,1.7,10.8c-4.7-1.8-9.4-3.8-13.9-5.9C348.4,462.5,350.2,457.9,352.3,453.3z
	 M366.5,497.5c2.7,8.9,6,17.6,9.8,26c-13.5,3.3-27.4,5.2-41.6,5.7c0.5-14.2,2.4-28.1,5.7-41.6C348.9,491.5,357.6,494.8,366.5,497.5z
	 M390.8,503.5c3.6,0.7,7.2,1.2,10.8,1.7c2.9,2.2,5.9,4.4,9,6.5c-4.6,2.1-9.2,3.9-13.9,5.7C394.6,512.8,392.6,508.2,390.8,503.5z
	 M462.3,505.2c3.6-0.5,7.2-1.1,10.8-1.7c-1.8,4.7-3.8,9.3-5.9,13.9c-4.7-1.7-9.4-3.6-13.9-5.7C456.4,509.6,459.4,507.4,462.3,505.2z
	 M497.5,497.5c8.9-2.7,17.6-6,26-9.8c3.3,13.5,5.2,27.4,5.7,41.6c-14.2-0.5-28.1-2.4-41.6-5.7C491.5,515.1,494.8,506.4,497.5,497.5z
	 M503.5,473.2c0.7-3.6,1.2-7.2,1.7-10.8c2.2-2.9,4.4-5.9,6.5-9c2.1,4.6,3.9,9.2,5.7,13.9C512.8,469.4,508.2,471.4,503.5,473.2z
	 M524.6,432c4.3-8.2,8.1-16.6,11.4-25.3c12,7.3,23.2,15.7,33.3,25.3c-10.2,9.5-21.4,18-33.3,25.3C532.8,448.6,529,440.2,524.6,432z
	 M477.9,321.3c-8.5-14.8-18.8-28.6-30.7-41.4c18.5-16.1,39.9-28.8,63.3-37.3c10.5,22.6,16.6,46.7,18.3,71.2
	C511.4,314.3,494.3,316.9,477.9,321.3z M457.3,327.9c-8.6,3.3-17.1,7.1-25.3,11.4c-8.2-4.3-16.6-8.1-25.3-11.4
	c7.3-12,15.7-23.2,25.3-33.3C441.5,304.8,450,316,457.3,327.9z M386.1,321.3c-16.5-4.4-33.5-7-50.9-7.5c1.7-24.4,7.8-48.6,18.3-71.2
	c23.4,8.5,44.8,21.3,63.3,37.3C404.9,292.6,394.6,306.5,386.1,321.3z M386.1,542.7c8.5,14.8,18.8,28.6,30.7,41.4
	c-18.5,16.1-39.9,28.8-63.4,37.4c-10.4-22.2-16.6-46.2-18.3-71.2C352.6,549.7,369.7,547.2,386.1,542.7z M406.7,536.1
	c8.6-3.3,17.1-7.1,25.3-11.4c8.2,4.3,16.6,8.1,25.3,11.4c-7.3,12-15.7,23.2-25.3,33.3C422.5,559.2,414,548,406.7,536.1z
	 M477.9,542.7c16.5,4.4,33.6,7,51,7.5c-1.7,24.9-8,49-18.3,71.2c-23.4-8.5-44.9-21.3-63.4-37.4C459.1,571.4,469.4,557.5,477.9,542.7
	z M598.8,432c18-20.4,32-43.6,41.4-68.5c13.8,8.4,26.7,18.4,38.4,30.1c11.7,11.7,21.7,24.5,30.1,38.3c-8.3,13.7-18.3,26.6-30.1,38.4
	c-11.7,11.7-24.6,21.8-38.4,30.1C630.8,475.6,616.8,452.4,598.8,432z M633.5,284.8c0,16.7-2.1,32.9-5.9,48.4
	c-24.3-11-50.5-17.5-77.7-19.1c-1.7-27.2-8.2-53.4-19.1-77.7c15.5-3.8,31.7-5.9,48.4-5.9c16.7,0,32.9,2,48.4,5.9
	C631.5,251.9,633.5,268.1,633.5,284.8z M470.4,185.4c11.8,11.8,21.8,24.7,30.1,38.4c-24.9,9.4-48.1,23.4-68.4,41.4
	c-20.4-18-43.5-32-68.4-41.4c8.3-13.7,18.3-26.6,30.1-38.4c11.7-11.7,24.6-21.8,38.4-30.1C445.8,163.6,458.7,173.7,470.4,185.4z
	 M284.8,230.5c16.7,0,32.9,2.1,48.4,5.9c-11,24.3-17.5,50.5-19.1,77.7c-27.2,1.7-53.4,8.2-77.7,19.1c-3.8-15.5-5.9-31.7-5.9-48.4
	c0-16.7,2-32.9,5.9-48.4C251.9,232.5,268.1,230.5,284.8,230.5z M185.4,393.6c11.7-11.7,24.6-21.8,38.4-30.1
	c9.4,24.9,23.4,48.1,41.4,68.5c-18,20.4-32,43.6-41.4,68.5c-13.8-8.4-26.7-18.4-38.4-30.1c-11.8-11.8-21.8-24.7-30.1-38.4
	C163.7,418.2,173.7,405.3,185.4,393.6z M230.5,579.2c0-16.7,2.1-32.9,5.9-48.4c24.3,11,50.5,17.5,77.7,19.1
	c1.7,27.2,8.2,53.4,19.1,77.7c-15.5,3.8-31.7,5.9-48.4,5.9c-16.7,0-32.9-2-48.4-5.9C232.5,612.1,230.5,595.9,230.5,579.2z
	 M393.6,678.6c-11.7-11.7-21.8-24.6-30.1-38.4c24.9-9.4,48.1-23.4,68.5-41.4c20.4,18,43.6,32,68.5,41.4
	c-8.4,13.8-18.4,26.7-30.1,38.4c-11.7,11.7-24.6,21.8-38.4,30.1C418.2,700.4,405.3,690.3,393.6,678.6z M579.2,633.5
	c-16.7,0-32.9-2.1-48.4-5.9c11-24.3,17.5-50.5,19.1-77.7c27.2-1.7,53.4-8.2,77.7-19.1c3.8,15.5,5.9,31.7,5.9,48.4
	c0,16.7-2,32.9-5.9,48.4C612.1,631.5,595.9,633.5,579.2,633.5z M646.8,521c16.8-9.7,32.5-21.7,46.6-35.8
	c9.9-9.9,18.7-20.6,26.5-31.9c11.6,25.7,17.7,53.8,17.7,82.8c0,7.3-0.4,14.6-1.2,21.8c-22.3,27.8-51.9,49.6-85.7,62.5
	c2.5-13.4,3.8-27.2,3.8-41.2C654.5,559.3,651.9,539.7,646.8,521z M758.3,524.3c-1.7-32.7-10.4-64-25.4-92.3
	c15-28.3,23.7-59.7,25.4-92.3c14.3,27.7,22.4,59.1,22.4,92.3C780.7,465.3,772.6,496.7,758.3,524.3z M728,266.6
	c-24.3-21.9-52.6-37.9-83.3-47.3c-9.4-30.7-25.5-59.1-47.5-83.5c30.3,9.6,58.2,26.4,81.3,49.6C702.1,208.9,718.6,236.9,728,266.6z
	 M524.3,105.7c-32.7,1.7-64,10.4-92.3,25.4c-28.3-15-59.7-23.7-92.3-25.4c27.7-14.3,59.1-22.4,92.3-22.4S496.7,91.4,524.3,105.7z
	 M185.4,185.4c23.2-23.2,51-40,81.3-49.6c-22,24.3-38,52.7-47.5,83.5c-30.6,9.4-59,25.4-83.3,47.3
	C145.4,236.9,161.9,208.9,185.4,185.4z M105.7,339.7c1.7,32.7,10.4,64,25.4,92.3c-15,28.3-23.7,59.7-25.4,92.3
	c-14.3-27.7-22.4-59.1-22.4-92.3S91.4,367.3,105.7,339.7z M135.8,597.3c24.3,22,52.7,38,83.5,47.5c9.4,30.7,25.5,59.1,47.5,83.5
	c-30.3-9.6-58.2-26.4-81.3-49.6C162.2,655.4,145.4,627.6,135.8,597.3z M339.7,758.3c32.7-1.7,64-10.4,92.3-25.4
	c28.3,15,59.7,23.7,92.3,25.4c-27.7,14.3-59.1,22.4-92.3,22.4S367.3,772.6,339.7,758.3z M597.3,728.2c22-24.3,38-52.7,47.5-83.5
	c30.7-9.4,59.1-25.5,83.5-47.5c-9.6,30.3-26.4,58.2-49.6,81.3C655.4,701.8,627.6,718.6,597.3,728.2z"/>
</svg>
